<mxfile host="app.diagrams.net" agent="Mozilla/5.0 (Windows NT 10.0; Win64; x64) AppleWebKit/537.36 (KHTML, like Gecko) Chrome/140.0.0.0 Safari/537.36" version="28.2.3">
  <diagram name="Page-1" id="3BEfYNqOdx2wlm6b0QTh">
    <mxGraphModel dx="1426" dy="785" grid="1" gridSize="10" guides="1" tooltips="1" connect="1" arrows="1" fold="1" page="1" pageScale="1" pageWidth="827" pageHeight="1169" math="0" shadow="0">
      <root>
        <mxCell id="0" />
        <mxCell id="1" parent="0" />
        <mxCell id="SzN0FK1wZc0S2ETjFq-y-1" value="events_fact" style="swimlane;fontStyle=0;childLayout=stackLayout;horizontal=1;startSize=26;fillColor=#1ba1e2;horizontalStack=0;resizeParent=1;resizeParentMax=0;resizeLast=0;collapsible=1;marginBottom=0;whiteSpace=wrap;html=1;fontColor=#ffffff;strokeColor=#006EAF;" vertex="1" parent="1">
          <mxGeometry x="320" y="250" width="180" height="286" as="geometry" />
        </mxCell>
        <mxCell id="SzN0FK1wZc0S2ETjFq-y-2" value="event_id STRING" style="text;strokeColor=none;fillColor=none;align=left;verticalAlign=top;spacingLeft=4;spacingRight=4;overflow=hidden;rotatable=0;points=[[0,0.5],[1,0.5]];portConstraint=eastwest;whiteSpace=wrap;html=1;" vertex="1" parent="SzN0FK1wZc0S2ETjFq-y-1">
          <mxGeometry y="26" width="180" height="26" as="geometry" />
        </mxCell>
        <mxCell id="SzN0FK1wZc0S2ETjFq-y-3" value="event_type STRING" style="text;strokeColor=none;fillColor=none;align=left;verticalAlign=top;spacingLeft=4;spacingRight=4;overflow=hidden;rotatable=0;points=[[0,0.5],[1,0.5]];portConstraint=eastwest;whiteSpace=wrap;html=1;" vertex="1" parent="SzN0FK1wZc0S2ETjFq-y-1">
          <mxGeometry y="52" width="180" height="26" as="geometry" />
        </mxCell>
        <mxCell id="SzN0FK1wZc0S2ETjFq-y-10" value="test_id STRING" style="text;strokeColor=none;fillColor=none;align=left;verticalAlign=top;spacingLeft=4;spacingRight=4;overflow=hidden;rotatable=0;points=[[0,0.5],[1,0.5]];portConstraint=eastwest;whiteSpace=wrap;html=1;" vertex="1" parent="SzN0FK1wZc0S2ETjFq-y-1">
          <mxGeometry y="78" width="180" height="26" as="geometry" />
        </mxCell>
        <mxCell id="SzN0FK1wZc0S2ETjFq-y-8" value="student_id STRING" style="text;strokeColor=none;fillColor=none;align=left;verticalAlign=top;spacingLeft=4;spacingRight=4;overflow=hidden;rotatable=0;points=[[0,0.5],[1,0.5]];portConstraint=eastwest;whiteSpace=wrap;html=1;" vertex="1" parent="SzN0FK1wZc0S2ETjFq-y-1">
          <mxGeometry y="104" width="180" height="26" as="geometry" />
        </mxCell>
        <mxCell id="SzN0FK1wZc0S2ETjFq-y-16" value="question_id STRING" style="text;strokeColor=none;fillColor=none;align=left;verticalAlign=top;spacingLeft=4;spacingRight=4;overflow=hidden;rotatable=0;points=[[0,0.5],[1,0.5]];portConstraint=eastwest;whiteSpace=wrap;html=1;" vertex="1" parent="SzN0FK1wZc0S2ETjFq-y-1">
          <mxGeometry y="130" width="180" height="26" as="geometry" />
        </mxCell>
        <mxCell id="SzN0FK1wZc0S2ETjFq-y-9" value="session_id STRING" style="text;strokeColor=none;fillColor=none;align=left;verticalAlign=top;spacingLeft=4;spacingRight=4;overflow=hidden;rotatable=0;points=[[0,0.5],[1,0.5]];portConstraint=eastwest;whiteSpace=wrap;html=1;" vertex="1" parent="SzN0FK1wZc0S2ETjFq-y-1">
          <mxGeometry y="156" width="180" height="26" as="geometry" />
        </mxCell>
        <mxCell id="SzN0FK1wZc0S2ETjFq-y-4" value="answer_pl STRING" style="text;strokeColor=none;fillColor=none;align=left;verticalAlign=top;spacingLeft=4;spacingRight=4;overflow=hidden;rotatable=0;points=[[0,0.5],[1,0.5]];portConstraint=eastwest;whiteSpace=wrap;html=1;" vertex="1" parent="SzN0FK1wZc0S2ETjFq-y-1">
          <mxGeometry y="182" width="180" height="26" as="geometry" />
        </mxCell>
        <mxCell id="SzN0FK1wZc0S2ETjFq-y-18" value="is_correct_answer BOOL/INT" style="text;strokeColor=none;fillColor=none;align=left;verticalAlign=top;spacingLeft=4;spacingRight=4;overflow=hidden;rotatable=0;points=[[0,0.5],[1,0.5]];portConstraint=eastwest;whiteSpace=wrap;html=1;" vertex="1" parent="SzN0FK1wZc0S2ETjFq-y-1">
          <mxGeometry y="208" width="180" height="26" as="geometry" />
        </mxCell>
        <mxCell id="SzN0FK1wZc0S2ETjFq-y-19" value="attempt_number INT" style="text;strokeColor=none;fillColor=none;align=left;verticalAlign=top;spacingLeft=4;spacingRight=4;overflow=hidden;rotatable=0;points=[[0,0.5],[1,0.5]];portConstraint=eastwest;whiteSpace=wrap;html=1;" vertex="1" parent="SzN0FK1wZc0S2ETjFq-y-1">
          <mxGeometry y="234" width="180" height="26" as="geometry" />
        </mxCell>
        <mxCell id="SzN0FK1wZc0S2ETjFq-y-20" value="event_ts TIMESTAMP" style="text;strokeColor=none;fillColor=none;align=left;verticalAlign=top;spacingLeft=4;spacingRight=4;overflow=hidden;rotatable=0;points=[[0,0.5],[1,0.5]];portConstraint=eastwest;whiteSpace=wrap;html=1;" vertex="1" parent="SzN0FK1wZc0S2ETjFq-y-1">
          <mxGeometry y="260" width="180" height="26" as="geometry" />
        </mxCell>
        <mxCell id="SzN0FK1wZc0S2ETjFq-y-21" value="students_dim" style="swimlane;fontStyle=0;childLayout=stackLayout;horizontal=1;startSize=26;fillColor=#fad7ac;horizontalStack=0;resizeParent=1;resizeParentMax=0;resizeLast=0;collapsible=1;marginBottom=0;whiteSpace=wrap;html=1;strokeColor=#b46504;" vertex="1" parent="1">
          <mxGeometry x="20" y="280" width="180" height="208" as="geometry" />
        </mxCell>
        <mxCell id="SzN0FK1wZc0S2ETjFq-y-22" value="student_id STRING" style="text;strokeColor=none;fillColor=none;align=left;verticalAlign=top;spacingLeft=4;spacingRight=4;overflow=hidden;rotatable=0;points=[[0,0.5],[1,0.5]];portConstraint=eastwest;whiteSpace=wrap;html=1;" vertex="1" parent="SzN0FK1wZc0S2ETjFq-y-21">
          <mxGeometry y="26" width="180" height="26" as="geometry" />
        </mxCell>
        <mxCell id="SzN0FK1wZc0S2ETjFq-y-23" value="name STRING" style="text;strokeColor=none;fillColor=none;align=left;verticalAlign=top;spacingLeft=4;spacingRight=4;overflow=hidden;rotatable=0;points=[[0,0.5],[1,0.5]];portConstraint=eastwest;whiteSpace=wrap;html=1;" vertex="1" parent="SzN0FK1wZc0S2ETjFq-y-21">
          <mxGeometry y="52" width="180" height="26" as="geometry" />
        </mxCell>
        <mxCell id="SzN0FK1wZc0S2ETjFq-y-24" value="class STRING" style="text;strokeColor=none;fillColor=none;align=left;verticalAlign=top;spacingLeft=4;spacingRight=4;overflow=hidden;rotatable=0;points=[[0,0.5],[1,0.5]];portConstraint=eastwest;whiteSpace=wrap;html=1;" vertex="1" parent="SzN0FK1wZc0S2ETjFq-y-21">
          <mxGeometry y="78" width="180" height="26" as="geometry" />
        </mxCell>
        <mxCell id="SzN0FK1wZc0S2ETjFq-y-25" value="email STRING" style="text;strokeColor=none;fillColor=none;align=left;verticalAlign=top;spacingLeft=4;spacingRight=4;overflow=hidden;rotatable=0;points=[[0,0.5],[1,0.5]];portConstraint=eastwest;whiteSpace=wrap;html=1;" vertex="1" parent="SzN0FK1wZc0S2ETjFq-y-21">
          <mxGeometry y="104" width="180" height="26" as="geometry" />
        </mxCell>
        <mxCell id="SzN0FK1wZc0S2ETjFq-y-26" value="is_current BOOL" style="text;strokeColor=none;fillColor=none;align=left;verticalAlign=top;spacingLeft=4;spacingRight=4;overflow=hidden;rotatable=0;points=[[0,0.5],[1,0.5]];portConstraint=eastwest;whiteSpace=wrap;html=1;" vertex="1" parent="SzN0FK1wZc0S2ETjFq-y-21">
          <mxGeometry y="130" width="180" height="26" as="geometry" />
        </mxCell>
        <mxCell id="SzN0FK1wZc0S2ETjFq-y-28" value="start_date DATE" style="text;strokeColor=none;fillColor=none;align=left;verticalAlign=top;spacingLeft=4;spacingRight=4;overflow=hidden;rotatable=0;points=[[0,0.5],[1,0.5]];portConstraint=eastwest;whiteSpace=wrap;html=1;" vertex="1" parent="SzN0FK1wZc0S2ETjFq-y-21">
          <mxGeometry y="156" width="180" height="26" as="geometry" />
        </mxCell>
        <mxCell id="SzN0FK1wZc0S2ETjFq-y-29" value="end_date DATE" style="text;strokeColor=none;fillColor=none;align=left;verticalAlign=top;spacingLeft=4;spacingRight=4;overflow=hidden;rotatable=0;points=[[0,0.5],[1,0.5]];portConstraint=eastwest;whiteSpace=wrap;html=1;" vertex="1" parent="SzN0FK1wZc0S2ETjFq-y-21">
          <mxGeometry y="182" width="180" height="26" as="geometry" />
        </mxCell>
        <mxCell id="SzN0FK1wZc0S2ETjFq-y-64" style="edgeStyle=orthogonalEdgeStyle;rounded=0;orthogonalLoop=1;jettySize=auto;html=1;exitX=0.5;exitY=0;exitDx=0;exitDy=0;endArrow=ERmany;endFill=0;" edge="1" parent="1" source="SzN0FK1wZc0S2ETjFq-y-34" target="SzN0FK1wZc0S2ETjFq-y-1">
          <mxGeometry relative="1" as="geometry" />
        </mxCell>
        <mxCell id="SzN0FK1wZc0S2ETjFq-y-34" value="tests_dim" style="swimlane;fontStyle=0;childLayout=stackLayout;horizontal=1;startSize=26;fillColor=#fad7ac;horizontalStack=0;resizeParent=1;resizeParentMax=0;resizeLast=0;collapsible=1;marginBottom=0;whiteSpace=wrap;html=1;strokeColor=#b46504;" vertex="1" parent="1">
          <mxGeometry x="234" y="660" width="180" height="234" as="geometry" />
        </mxCell>
        <mxCell id="SzN0FK1wZc0S2ETjFq-y-35" value="test_id STRING" style="text;strokeColor=none;fillColor=none;align=left;verticalAlign=top;spacingLeft=4;spacingRight=4;overflow=hidden;rotatable=0;points=[[0,0.5],[1,0.5]];portConstraint=eastwest;whiteSpace=wrap;html=1;" vertex="1" parent="SzN0FK1wZc0S2ETjFq-y-34">
          <mxGeometry y="26" width="180" height="26" as="geometry" />
        </mxCell>
        <mxCell id="SzN0FK1wZc0S2ETjFq-y-36" value="test_name STRING" style="text;strokeColor=none;fillColor=none;align=left;verticalAlign=top;spacingLeft=4;spacingRight=4;overflow=hidden;rotatable=0;points=[[0,0.5],[1,0.5]];portConstraint=eastwest;whiteSpace=wrap;html=1;" vertex="1" parent="SzN0FK1wZc0S2ETjFq-y-34">
          <mxGeometry y="52" width="180" height="26" as="geometry" />
        </mxCell>
        <mxCell id="SzN0FK1wZc0S2ETjFq-y-37" value="teacher_id STRING" style="text;strokeColor=none;fillColor=none;align=left;verticalAlign=top;spacingLeft=4;spacingRight=4;overflow=hidden;rotatable=0;points=[[0,0.5],[1,0.5]];portConstraint=eastwest;whiteSpace=wrap;html=1;" vertex="1" parent="SzN0FK1wZc0S2ETjFq-y-34">
          <mxGeometry y="78" width="180" height="26" as="geometry" />
        </mxCell>
        <mxCell id="SzN0FK1wZc0S2ETjFq-y-38" value="title STRING" style="text;strokeColor=none;fillColor=none;align=left;verticalAlign=top;spacingLeft=4;spacingRight=4;overflow=hidden;rotatable=0;points=[[0,0.5],[1,0.5]];portConstraint=eastwest;whiteSpace=wrap;html=1;" vertex="1" parent="SzN0FK1wZc0S2ETjFq-y-34">
          <mxGeometry y="104" width="180" height="26" as="geometry" />
        </mxCell>
        <mxCell id="SzN0FK1wZc0S2ETjFq-y-39" value="total_questions BOOL" style="text;strokeColor=none;fillColor=none;align=left;verticalAlign=top;spacingLeft=4;spacingRight=4;overflow=hidden;rotatable=0;points=[[0,0.5],[1,0.5]];portConstraint=eastwest;whiteSpace=wrap;html=1;" vertex="1" parent="SzN0FK1wZc0S2ETjFq-y-34">
          <mxGeometry y="130" width="180" height="26" as="geometry" />
        </mxCell>
        <mxCell id="SzN0FK1wZc0S2ETjFq-y-40" value="subject DATE" style="text;strokeColor=none;fillColor=none;align=left;verticalAlign=top;spacingLeft=4;spacingRight=4;overflow=hidden;rotatable=0;points=[[0,0.5],[1,0.5]];portConstraint=eastwest;whiteSpace=wrap;html=1;" vertex="1" parent="SzN0FK1wZc0S2ETjFq-y-34">
          <mxGeometry y="156" width="180" height="26" as="geometry" />
        </mxCell>
        <mxCell id="SzN0FK1wZc0S2ETjFq-y-41" value="creation_date DATE" style="text;strokeColor=none;fillColor=none;align=left;verticalAlign=top;spacingLeft=4;spacingRight=4;overflow=hidden;rotatable=0;points=[[0,0.5],[1,0.5]];portConstraint=eastwest;whiteSpace=wrap;html=1;" vertex="1" parent="SzN0FK1wZc0S2ETjFq-y-34">
          <mxGeometry y="182" width="180" height="26" as="geometry" />
        </mxCell>
        <mxCell id="SzN0FK1wZc0S2ETjFq-y-42" value="deadline_date DATE" style="text;strokeColor=none;fillColor=none;align=left;verticalAlign=top;spacingLeft=4;spacingRight=4;overflow=hidden;rotatable=0;points=[[0,0.5],[1,0.5]];portConstraint=eastwest;whiteSpace=wrap;html=1;" vertex="1" parent="SzN0FK1wZc0S2ETjFq-y-34">
          <mxGeometry y="208" width="180" height="26" as="geometry" />
        </mxCell>
        <mxCell id="SzN0FK1wZc0S2ETjFq-y-43" value="questions_dim" style="swimlane;fontStyle=0;childLayout=stackLayout;horizontal=1;startSize=26;fillColor=#fad7ac;horizontalStack=0;resizeParent=1;resizeParentMax=0;resizeLast=0;collapsible=1;marginBottom=0;whiteSpace=wrap;html=1;strokeColor=#b46504;" vertex="1" parent="1">
          <mxGeometry x="610" y="250" width="200" height="208" as="geometry" />
        </mxCell>
        <mxCell id="SzN0FK1wZc0S2ETjFq-y-44" value="question_id STRING" style="text;strokeColor=none;fillColor=none;align=left;verticalAlign=top;spacingLeft=4;spacingRight=4;overflow=hidden;rotatable=0;points=[[0,0.5],[1,0.5]];portConstraint=eastwest;whiteSpace=wrap;html=1;" vertex="1" parent="SzN0FK1wZc0S2ETjFq-y-43">
          <mxGeometry y="26" width="200" height="26" as="geometry" />
        </mxCell>
        <mxCell id="SzN0FK1wZc0S2ETjFq-y-45" value="test_id STRING" style="text;strokeColor=none;fillColor=none;align=left;verticalAlign=top;spacingLeft=4;spacingRight=4;overflow=hidden;rotatable=0;points=[[0,0.5],[1,0.5]];portConstraint=eastwest;whiteSpace=wrap;html=1;" vertex="1" parent="SzN0FK1wZc0S2ETjFq-y-43">
          <mxGeometry y="52" width="200" height="26" as="geometry" />
        </mxCell>
        <mxCell id="SzN0FK1wZc0S2ETjFq-y-46" value="question_text STRING" style="text;strokeColor=none;fillColor=none;align=left;verticalAlign=top;spacingLeft=4;spacingRight=4;overflow=hidden;rotatable=0;points=[[0,0.5],[1,0.5]];portConstraint=eastwest;whiteSpace=wrap;html=1;" vertex="1" parent="SzN0FK1wZc0S2ETjFq-y-43">
          <mxGeometry y="78" width="200" height="26" as="geometry" />
        </mxCell>
        <mxCell id="SzN0FK1wZc0S2ETjFq-y-49" value="answer_options ARRAY[STRING]" style="text;strokeColor=none;fillColor=none;align=left;verticalAlign=top;spacingLeft=4;spacingRight=4;overflow=hidden;rotatable=0;points=[[0,0.5],[1,0.5]];portConstraint=eastwest;whiteSpace=wrap;html=1;" vertex="1" parent="SzN0FK1wZc0S2ETjFq-y-43">
          <mxGeometry y="104" width="200" height="26" as="geometry" />
        </mxCell>
        <mxCell id="SzN0FK1wZc0S2ETjFq-y-47" value="question_order INT" style="text;strokeColor=none;fillColor=none;align=left;verticalAlign=top;spacingLeft=4;spacingRight=4;overflow=hidden;rotatable=0;points=[[0,0.5],[1,0.5]];portConstraint=eastwest;whiteSpace=wrap;html=1;" vertex="1" parent="SzN0FK1wZc0S2ETjFq-y-43">
          <mxGeometry y="130" width="200" height="26" as="geometry" />
        </mxCell>
        <mxCell id="SzN0FK1wZc0S2ETjFq-y-48" value="correct_answer STRING" style="text;strokeColor=none;fillColor=none;align=left;verticalAlign=top;spacingLeft=4;spacingRight=4;overflow=hidden;rotatable=0;points=[[0,0.5],[1,0.5]];portConstraint=eastwest;whiteSpace=wrap;html=1;" vertex="1" parent="SzN0FK1wZc0S2ETjFq-y-43">
          <mxGeometry y="156" width="200" height="26" as="geometry" />
        </mxCell>
        <mxCell id="SzN0FK1wZc0S2ETjFq-y-50" value="difficulty_tag DATE" style="text;strokeColor=none;fillColor=none;align=left;verticalAlign=top;spacingLeft=4;spacingRight=4;overflow=hidden;rotatable=0;points=[[0,0.5],[1,0.5]];portConstraint=eastwest;whiteSpace=wrap;html=1;" vertex="1" parent="SzN0FK1wZc0S2ETjFq-y-43">
          <mxGeometry y="182" width="200" height="26" as="geometry" />
        </mxCell>
        <mxCell id="SzN0FK1wZc0S2ETjFq-y-53" value="teachers_dim" style="swimlane;fontStyle=0;childLayout=stackLayout;horizontal=1;startSize=26;fillColor=#fad7ac;horizontalStack=0;resizeParent=1;resizeParentMax=0;resizeLast=0;collapsible=1;marginBottom=0;whiteSpace=wrap;html=1;strokeColor=#b46504;" vertex="1" parent="1">
          <mxGeometry x="520" y="600" width="180" height="104" as="geometry" />
        </mxCell>
        <mxCell id="SzN0FK1wZc0S2ETjFq-y-54" value="teacher_id STRING" style="text;strokeColor=none;fillColor=none;align=left;verticalAlign=top;spacingLeft=4;spacingRight=4;overflow=hidden;rotatable=0;points=[[0,0.5],[1,0.5]];portConstraint=eastwest;whiteSpace=wrap;html=1;" vertex="1" parent="SzN0FK1wZc0S2ETjFq-y-53">
          <mxGeometry y="26" width="180" height="26" as="geometry" />
        </mxCell>
        <mxCell id="SzN0FK1wZc0S2ETjFq-y-55" value="name STRING" style="text;strokeColor=none;fillColor=none;align=left;verticalAlign=top;spacingLeft=4;spacingRight=4;overflow=hidden;rotatable=0;points=[[0,0.5],[1,0.5]];portConstraint=eastwest;whiteSpace=wrap;html=1;" vertex="1" parent="SzN0FK1wZc0S2ETjFq-y-53">
          <mxGeometry y="52" width="180" height="26" as="geometry" />
        </mxCell>
        <mxCell id="SzN0FK1wZc0S2ETjFq-y-56" value="departmentSTRING" style="text;strokeColor=none;fillColor=none;align=left;verticalAlign=top;spacingLeft=4;spacingRight=4;overflow=hidden;rotatable=0;points=[[0,0.5],[1,0.5]];portConstraint=eastwest;whiteSpace=wrap;html=1;" vertex="1" parent="SzN0FK1wZc0S2ETjFq-y-53">
          <mxGeometry y="78" width="180" height="26" as="geometry" />
        </mxCell>
        <mxCell id="SzN0FK1wZc0S2ETjFq-y-62" style="edgeStyle=orthogonalEdgeStyle;rounded=0;orthogonalLoop=1;jettySize=auto;html=1;exitX=1;exitY=0.5;exitDx=0;exitDy=0;endArrow=ERmany;endFill=0;" edge="1" parent="1" source="SzN0FK1wZc0S2ETjFq-y-25" target="SzN0FK1wZc0S2ETjFq-y-1">
          <mxGeometry relative="1" as="geometry" />
        </mxCell>
        <mxCell id="SzN0FK1wZc0S2ETjFq-y-63" style="edgeStyle=orthogonalEdgeStyle;rounded=0;orthogonalLoop=1;jettySize=auto;html=1;exitX=0;exitY=0.5;exitDx=0;exitDy=0;endArrow=ERmany;endFill=0;" edge="1" parent="1" source="SzN0FK1wZc0S2ETjFq-y-49" target="SzN0FK1wZc0S2ETjFq-y-1">
          <mxGeometry relative="1" as="geometry" />
        </mxCell>
        <mxCell id="SzN0FK1wZc0S2ETjFq-y-65" style="edgeStyle=orthogonalEdgeStyle;rounded=0;orthogonalLoop=1;jettySize=auto;html=1;exitX=1;exitY=0.5;exitDx=0;exitDy=0;endArrow=ERone;endFill=0;startArrow=ERone;startFill=0;" edge="1" parent="1" source="SzN0FK1wZc0S2ETjFq-y-37" target="SzN0FK1wZc0S2ETjFq-y-53">
          <mxGeometry relative="1" as="geometry" />
        </mxCell>
      </root>
    </mxGraphModel>
  </diagram>
</mxfile>
